<svg xmlns="http://www.w3.org/2000/svg" width="800" height="800" viewBox="0 0 32 32"><defs><style>.cls-1{fill:#5233ff}</style></defs><g id="Layer_2" data-name="Layer 2"><path d="M18 11a1 1 0 0 1-1 1 5 5 0 0 0-5 5 1 1 0 0 1-2 0 5 5 0 0 0-5-5 1 1 0 0 1 0-2 5 5 0 0 0 5-5 1 1 0 0 1 2 0 5 5 0 0 0 5 5 1 1 0 0 1 1 1ZM19 24a1 1 0 0 1-1 1 2 2 0 0 0-2 2 1 1 0 0 1-2 0 2 2 0 0 0-2-2 1 1 0 0 1 0-2 2 2 0 0 0 2-2 1 1 0 0 1 2 0 2 2 0 0 0 2 2 1 1 0 0 1 1 1ZM28 17a1 1 0 0 1-1 1 4 4 0 0 0-4 4 1 1 0 0 1-2 0 4 4 0 0 0-4-4 1 1 0 0 1 0-2 4 4 0 0 0 4-4 1 1 0 0 1 2 0 4 4 0 0 0 4 4 1 1 0 0 1 1 1Z" class="cls-1"/></g></svg>